{
  "accessors": [
    {
      "bufferView": 2,
      "componentType": 5126,
      "count": 56309,
      "max": [
        0.31605398654937744,
        0.14680400490760803,
        0.11191800236701965
      ],
      "min": [
        -0.31972798705101013,
        -0.14862899482250214,
        -0.1337520033121109
      ],
      "type": "VEC3"
    },
    {
      "bufferView": 2,
      "byteOffset": 675708,
      "componentType": 5126,
      "count": 56309,
      "max": [
        0.9998685121536255,
        0.9999345541000366,
        0.9999959468841553
      ],
      "min": [
        -0.9999544620513916,
        -0.9999053478240967,
        -0.9999853372573853
      ],
      "type": "VEC3"
    },
    {
      "bufferView": 1,
      "componentType": 5126,
      "count": 56309,
      "max": [
        0.9999799728393555,
        0.997160017490387
      ],
      "min": [
        3.7000001611886546e-05,
        3.300000025774352e-05
      ],
      "type": "VEC2"
    },
    {
      "bufferView": 0,
      "componentType": 5125,
      "count": 300000,
      "type": "SCALAR"
    }
  ],
  "asset": {
    "extras": {
      "author": "aaa888 (https://sketchfab.com/aaa888)",
      "license": "CC-BY-4.0 (http://creativecommons.org/licenses/by/4.0/)",
      "source": "https://sketchfab.com/3d-models/krispy-fried-chicken-486c17037e7e41aa95044411bb77887c",
      "title": "Krispy Fried Chicken"
    },
    "generator": "Sketchfab-14.80.0",
    "version": "2.0"
  },
  "bufferViews": [
    {
      "buffer": 0,
      "byteLength": 1200000,
      "name": "floatBufferViews",
      "target": 34963
    },
    {
      "buffer": 0,
      "byteLength": 450472,
      "byteOffset": 1200000,
      "byteStride": 8,
      "name": "floatBufferViews",
      "target": 34962
    },
    {
      "buffer": 0,
      "byteLength": 1351416,
      "byteOffset": 1650472,
      "byteStride": 12,
      "name": "floatBufferViews",
      "target": 34962
    }
  ],
  "buffers": [
    {
      "byteLength": 3001888,
      "uri": "scene.bin"
    }
  ],
  "extensionsUsed": [
    "KHR_materials_unlit"
  ],
  "images": [
    {
      "uri": "textures/Material.001_baseColor.png"
    }
  ],
  "materials": [
    {
      "doubleSided": true,
      "extensions": {
        "KHR_materials_unlit": {}
      },
      "name": "Material.001",
      "pbrMetallicRoughness": {
        "baseColorTexture": {
          "index": 0
        },
        "metallicFactor": 0.0
      }
    }
  ],
  "meshes": [
    {
      "name": "Object_0",
      "primitives": [
        {
          "attributes": {
            "NORMAL": 1,
            "POSITION": 0,
            "TEXCOORD_0": 2
          },
          "indices": 3,
          "material": 0,
          "mode": 4
        }
      ]
    }
  ],
  "nodes": [
    {
      "children": [
        1
      ],
      "matrix": [
        0.8730913996696472,
        -0.4875565469264984,
        -1.1519819474481406e-16,
        0.0,
        -0.08454431593418121,
        -0.15139766037464164,
        0.9848507642745972,
        0.0,
        -0.48017042875289917,
        -0.8598647117614746,
        -0.17340412735939045,
        0.0,
        0.0,
        0.0,
        0.0,
        1.0
      ],
      "name": "Sketchfab_model"
    },
    {
      "children": [
        2
      ],
      "name": "untitled.obj.cleaner.materialmerger.gles"
    },
    {
      "mesh": 0,
      "name": "Object_2"
    }
  ],
  "samplers": [
    {
      "magFilter": 9729,
      "minFilter": 9987,
      "wrapS": 10497,
      "wrapT": 10497
    }
  ],
  "scene": 0,
  "scenes": [
    {
      "name": "Sketchfab_Scene",
      "nodes": [
        0
      ]
    }
  ],
  "textures": [
    {
      "sampler": 0,
      "source": 0
    }
  ]
}
