<?xml version="1.0" standalone="no"?>
<!DOCTYPE svg PUBLIC "-//W3C//DTD SVG 20010904//EN"
 "http://www.w3.org/TR/2001/REC-SVG-20010904/DTD/svg10.dtd">
<svg version="1.0" xmlns="http://www.w3.org/2000/svg"
 width="200.000000pt" height="200.000000pt" viewBox="0 0 200.000000 200.000000"
 preserveAspectRatio="xMidYMid meet">

<g transform="translate(0.000000,200.000000) scale(0.100000,-0.100000)"
fill="#000000" stroke="none">
<path d="M0 1000 l0 -1000 1000 0 1000 0 0 1000 0 1000 -1000 0 -1000 0 0
-1000z m865 435 c147 -65 155 -70 155 -96 0 -25 -197 -126 -219 -112 -20 13
-131 224 -131 250 0 12 6 23 13 26 15 5 21 3 182 -68z m523 -67 c14 -31 26 -4
-188 -448 -73 -151 -149 -311 -170 -355 -44 -95 -61 -115 -100 -115 -39 0 -50
19 -96 173 -26 89 -44 132 -57 139 -10 5 -76 25 -145 45 -70 19 -137 41 -150
49 -22 15 -30 56 -14 81 4 6 120 72 257 147 138 74 324 175 415 225 185 101
223 110 248 59z m64 -493 c42 -82 77 -155 78 -162 0 -7 -8 -17 -18 -22 -25
-14 -266 98 -270 125 -2 11 10 47 26 80 17 32 37 76 46 97 12 31 20 38 38 35
18 -2 38 -33 100 -153z"/>
</g>
</svg>
